HIERARCHY
ROOT pelvis
{
	OFFSET 0.000000 0.000000 0.000000
	CHANNELS 6 Xposition Yposition Zposition Zrotation Yrotation Xrotation
	JOINT left_hip
	{
		OFFSET 0.084821 -0.083004 -0.000000
		CHANNELS 3 Zrotation Yrotation Xrotation
		JOINT left_knee
		{
			OFFSET 0.000000 -0.386771 0.006791
			CHANNELS 3 Zrotation Yrotation Xrotation
			JOINT left_ankle
			{
				OFFSET 0.000000 -0.388474 -0.025097
				CHANNELS 3 Zrotation Yrotation Xrotation
				JOINT left_foot
				{
					OFFSET 0.000000 -0.064820 0.119049
					CHANNELS 3 Zrotation Yrotation Xrotation
				}
			}
		}
	}
	JOINT right_hip
	{
		OFFSET -0.084821 -0.083004 -0.000000
		CHANNELS 3 Zrotation Yrotation Xrotation
		JOINT right_knee
		{
			OFFSET 0.000000 -0.386771 0.006791
			CHANNELS 3 Zrotation Yrotation Xrotation
			JOINT right_ankle
			{
				OFFSET 0.000000 -0.388474 -0.025097
				CHANNELS 3 Zrotation Yrotation Xrotation
				JOINT right_foot
				{
					OFFSET 0.000000 -0.064820 0.119049
					CHANNELS 3 Zrotation Yrotation Xrotation
				}
			}
		}
	}
	JOINT spine1
	{
		OFFSET 0.000000 0.098682 0.000000
		CHANNELS 3 Zrotation Yrotation Xrotation
		JOINT spine2
		{
			OFFSET 0.000000 0.098682 0.000000
			CHANNELS 3 Zrotation Yrotation Xrotation
			JOINT spine3
			{
				OFFSET 0.000000 0.096615 -0.000000
				CHANNELS 3 Zrotation Yrotation Xrotation
				JOINT neck
				{
					OFFSET 0.000000 0.165863 -0.010039
					CHANNELS 3 Zrotation Yrotation Xrotation
					JOINT head
					{
						OFFSET 0.000000 0.168342 0.012908
						CHANNELS 3 Zrotation Yrotation Xrotation
					}
				}
				JOINT left_collar
				{
					OFFSET 0.046364 0.094944 -0.000000
					CHANNELS 3 Zrotation Yrotation Xrotation
					JOINT left_shoulder
					{
						OFFSET 0.118056 0.055135 -0.008675
						CHANNELS 3 Zrotation Yrotation Xrotation
						JOINT left_elbow
						{
							OFFSET 0.250723 -0.032799 -0.031858
							CHANNELS 3 Zrotation Yrotation Xrotation
							JOINT left_wrist
							{
								OFFSET 0.241129 -0.010016 -0.004689
								CHANNELS 3 Zrotation Yrotation Xrotation
								JOINT left_pinky1
								{
									OFFSET 0.088743 -0.012511 -0.034384
									CHANNELS 3 Zrotation Yrotation Xrotation
									JOINT left_pinky2
									{
										OFFSET 0.025397 0.000000 -0.000847
										CHANNELS 3 Zrotation Yrotation Xrotation
										JOINT left_pinky3
										{
											OFFSET 0.021605 0.000000 -0.000721
											CHANNELS 3 Zrotation Yrotation Xrotation
											End Site
											{
												OFFSET 0.000000 0.021617 0.000000
											}
										}
									}
								}
								JOINT left_ring1
								{
									OFFSET 0.099726 -0.007763 -0.013228
									CHANNELS 3 Zrotation Yrotation Xrotation
									JOINT left_ring2
									{
										OFFSET 0.032130 -0.002011 -0.001834
										CHANNELS 3 Zrotation Yrotation Xrotation
										JOINT left_ring3
										{
											OFFSET 0.024805 -0.001553 -0.001416
											CHANNELS 3 Zrotation Yrotation Xrotation
											End Site
											{
												OFFSET 0.000000 0.024894 0.000000
											}
										}
									}
								}
								JOINT left_middle1
								{
									OFFSET 0.105715 -0.006141 0.006129
									CHANNELS 3 Zrotation Yrotation Xrotation
									JOINT left_middle2
									{
										OFFSET 0.033278 -0.001323 -0.000868
										CHANNELS 3 Zrotation Yrotation Xrotation
										JOINT left_middle3
										{
											OFFSET 0.025347 -0.001008 -0.000661
											CHANNELS 3 Zrotation Yrotation Xrotation
											End Site
											{
												OFFSET 0.000000 0.025376 0.000000
											}
										}
									}
								}
								JOINT left_index1
								{
									OFFSET 0.103060 -0.008307 0.026821
									CHANNELS 3 Zrotation Yrotation Xrotation
									JOINT left_index2
									{
										OFFSET 0.031407 -0.001304 -0.000135
										CHANNELS 3 Zrotation Yrotation Xrotation
										JOINT left_index3
										{
											OFFSET 0.023007 -0.000955 -0.000099
											CHANNELS 3 Zrotation Yrotation Xrotation
											End Site
											{
												OFFSET 0.000000 0.023027 0.000000
											}
										}
									}
								}
								JOINT left_thumb1
								{
									OFFSET 0.039126 -0.015460 0.032006
									CHANNELS 3 Zrotation Yrotation Xrotation
									JOINT left_thumb2
									{
										OFFSET 0.020179 -0.001931 0.016857
										CHANNELS 3 Zrotation Yrotation Xrotation
										JOINT left_thumb3
										{
											OFFSET 0.020952 -0.002004 0.017502
											CHANNELS 3 Zrotation Yrotation Xrotation
											End Site
											{
												OFFSET 0.000000 0.027373 0.000000
											}
										}
									}
								}
							}
						}
					}
				}
				JOINT right_collar
				{
					OFFSET -0.046364 0.094942 -0.000000
					CHANNELS 3 Zrotation Yrotation Xrotation
					JOINT right_shoulder
					{
						OFFSET -0.118056 0.055140 -0.008675
						CHANNELS 3 Zrotation Yrotation Xrotation
						JOINT right_elbow
						{
							OFFSET -0.250723 -0.032800 -0.031858
							CHANNELS 3 Zrotation Yrotation Xrotation
							JOINT right_wrist
							{
								OFFSET -0.241129 -0.010020 -0.004689
								CHANNELS 3 Zrotation Yrotation Xrotation
								JOINT right_pinky1
								{
									OFFSET -0.088743 -0.012509 -0.034384
									CHANNELS 3 Zrotation Yrotation Xrotation
									JOINT right_pinky2
									{
										OFFSET -0.025397 0.000000 -0.000847
										CHANNELS 3 Zrotation Yrotation Xrotation
										JOINT right_pinky3
										{
											OFFSET -0.021605 0.000000 -0.000721
											CHANNELS 3 Zrotation Yrotation Xrotation
											End Site
											{
												OFFSET 0.000000 0.021617 0.000000
											}
										}
									}
								}
								JOINT right_ring1
								{
									OFFSET -0.099726 -0.007761 -0.013228
									CHANNELS 3 Zrotation Yrotation Xrotation
									JOINT right_ring2
									{
										OFFSET -0.032130 -0.002011 -0.001834
										CHANNELS 3 Zrotation Yrotation Xrotation
										JOINT right_ring3
										{
											OFFSET -0.024805 -0.001560 -0.001416
											CHANNELS 3 Zrotation Yrotation Xrotation
											End Site
											{
												OFFSET 0.000000 0.024894 0.000000
											}
										}
									}
								}
								JOINT right_middle1
								{
									OFFSET -0.105715 -0.006139 0.006129
									CHANNELS 3 Zrotation Yrotation Xrotation
									JOINT right_middle2
									{
										OFFSET -0.033278 -0.001323 -0.000868
										CHANNELS 3 Zrotation Yrotation Xrotation
										JOINT right_middle3
										{
											OFFSET -0.025347 -0.001008 -0.000661
											CHANNELS 3 Zrotation Yrotation Xrotation
											End Site
											{
												OFFSET 0.000000 0.025376 0.000000
											}
										}
									}
								}
								JOINT right_index1
								{
									OFFSET -0.103060 -0.008310 0.026821
									CHANNELS 3 Zrotation Yrotation Xrotation
									JOINT right_index2
									{
										OFFSET -0.031407 -0.001300 -0.000135
										CHANNELS 3 Zrotation Yrotation Xrotation
										JOINT right_index3
										{
											OFFSET -0.023007 -0.000950 -0.000099
											CHANNELS 3 Zrotation Yrotation Xrotation
											End Site
											{
												OFFSET 0.000000 0.023027 0.000000
											}
										}
									}
								}
								JOINT right_thumb1
								{
									OFFSET -0.039126 -0.015460 0.032006
									CHANNELS 3 Zrotation Yrotation Xrotation
									JOINT right_thumb2
									{
										OFFSET -0.020179 -0.001930 0.016857
										CHANNELS 3 Zrotation Yrotation Xrotation
										JOINT right_thumb3
										{
											OFFSET -0.020952 -0.002000 0.017502
											CHANNELS 3 Zrotation Yrotation Xrotation
											End Site
											{
												OFFSET 0.000000 0.027373 0.000000
											}
										}
									}
								}
							}
						}
					}
				}
			}
		}
	}
}
MOTION
Frames: 4
Frame Time: 0.041667
0.022255 0.928146 2.075262 1.526408 -11.146334 -6.838575 0.108596 7.914533 -16.153667 0.003657 -0.002288 1.752124 5.424308 17.817686 20.179141 -0.324461 0.677261 0.731842 -2.350691 1.93538 21.779703 -0.002689 0.01287 10.029061 -2.843242 -6.966549 12.101665 0.087512 -0.290701 0.417925 0.253072 -0.027679 3.78536 1.070992 0.505438 3.954009 -1.098 11.97769 -4.409532 -1.970273 0.310983 16.852152 0.0 0.0 0.0 -24.312287 7.035203 -9.884277 -49.804408 14.522354 10.38486 0.004414 -20.504283 -0.002647 -0.274208 -0.467001 -0.020462 -92.57014924610442 0.0 0.0 -92.57014924610442 0.0 0.0 -92.57014924610442 0.0 0.0 -85.08342262441943 0.0 0.0 -85.08342262441943 0.0 0.0 -85.08342262441943 0.0 0.0 -84.37379091587039 0.0 0.0 -84.37379091587039 0.0 0.0 -84.37379091587039 0.0 0.0 -90.97746009288186 0.0 0.0 -90.97746009288186 0.0 0.0 -90.97746009288186 0.0 0.0 -18.243829354300512 27.68685741440712 17.890591193034 -13.914816527634306 34.63166592994157 14.925771269364267 -5.325529397709519 53.75054957052526 21.00296897703599 22.463134 0.686589 -7.072589 46.695284 2.604842 3.445242 -0.006742 17.844042 -0.002563 0.142002 0.450369 -0.025678 92.57014924610442 -0.0 0.0 92.57014924610442 -0.0 0.0 92.57014924610442 -0.0 0.0 85.08342262441943 -0.0 0.0 85.08342262441943 -0.0 0.0 85.08342262441943 -0.0 0.0 84.37379091587039 -0.0 0.0 84.37379091587039 -0.0 0.0 84.37379091587039 -0.0 0.0 90.97746009288186 -0.0 0.0 90.97746009288186 -0.0 0.0 90.97746009288186 -0.0 0.0 18.243829354300512 -27.68685741440712 17.890591193034 13.914816527634306 -34.63166592994157 14.925771269364267 5.325529397709519 -53.75054957052526 21.00296897703599
0.029411 0.928001 2.142548 1.573054 -10.992013 -6.360787 -0.906254 8.251227 -14.409906 0.003625 -0.00348 2.678775 5.238708 17.004086 18.453383 -0.298433 0.652924 0.665985 -3.278284 2.291156 21.512859 -0.001203 0.019787 15.535489 -3.206353 -8.239865 11.736351 0.107747 -0.3408 0.393971 0.23751 -0.023068 2.8378 1.06417 0.517041 3.624807 -0.896099 12.150998 -4.426758 -2.027852 0.330139 16.734905 0.0 0.0 0.0 -24.017778 7.620695 -9.659289 -49.954493 14.936757 9.891847 0.004489 -20.218613 -0.002636 -0.266259 -0.463003 -0.020198 -92.57014924610442 0.0 0.0 -92.57014924610442 0.0 0.0 -92.57014924610442 0.0 0.0 -85.08342262441943 0.0 0.0 -85.08342262441943 0.0 0.0 -85.08342262441943 0.0 0.0 -84.37379091587039 0.0 0.0 -84.37379091587039 0.0 0.0 -84.37379091587039 0.0 0.0 -90.97746009288186 0.0 0.0 -90.97746009288186 0.0 0.0 -90.97746009288186 0.0 0.0 -18.243829354300512 27.68685741440712 17.890591193034 -13.914816527634306 34.63166592994157 14.925771269364267 -5.325529397709519 53.75054957052526 21.00296897703599 21.806103 -0.065863 -6.522381 47.557124 1.352271 2.520746 -0.006722 17.526222 -0.002534 0.135635 0.443612 -0.026343 92.57014924610442 -0.0 0.0 92.57014924610442 -0.0 0.0 92.57014924610442 -0.0 0.0 85.08342262441943 -0.0 0.0 85.08342262441943 -0.0 0.0 85.08342262441943 -0.0 0.0 84.37379091587039 -0.0 0.0 84.37379091587039 -0.0 0.0 84.37379091587039 -0.0 0.0 90.97746009288186 -0.0 0.0 90.97746009288186 -0.0 0.0 90.97746009288186 -0.0 0.0 18.243829354300512 -27.68685741440712 17.890591193034 13.914816527634306 -34.63166592994157 14.925771269364267 5.325529397709519 -53.75054957052526 21.00296897703599
0.036448 0.933373 2.210255 2.095309 -9.587733 -6.025405 -2.316431 8.424428 -12.110477 0.003549 -0.005111 3.951117 4.510101 14.034318 18.029069 -0.239723 0.544581 0.649045 -4.393375 1.838973 19.553839 0.001867 0.028899 23.024387 -3.804082 -10.25619 11.069242 0.138338 -0.42081 0.35533 -0.231155 0.002132 2.032022 0.909922 0.481799 3.301636 -0.588526 11.149228 -4.431408 -2.11641 0.344717 16.650563 0.0 0.0 0.0 -23.724678 7.746822 -9.48415 -49.807251 14.677345 9.351281 0.004601 -20.019809 -0.002671 -0.258911 -0.461204 -0.021146 -92.57014924610442 0.0 0.0 -92.57014924610442 0.0 0.0 -92.57014924610442 0.0 0.0 -85.08342262441943 0.0 0.0 -85.08342262441943 0.0 0.0 -85.08342262441943 0.0 0.0 -84.37379091587039 0.0 0.0 -84.37379091587039 0.0 0.0 -84.37379091587039 0.0 0.0 -90.97746009288186 0.0 0.0 -90.97746009288186 0.0 0.0 -90.97746009288186 0.0 0.0 -18.243829354300512 27.68685741440712 17.890591193034 -13.914816527634306 34.63166592994157 14.925771269364267 -5.325529397709519 53.75054957052526 21.00296897703599 21.208984 -0.931063 -5.989608 48.623866 -0.129121 1.27604 -0.006659 17.04293 -0.002483 0.127146 0.432908 -0.027425 92.57014924610442 -0.0 0.0 92.57014924610442 -0.0 0.0 92.57014924610442 -0.0 0.0 85.08342262441943 -0.0 0.0 85.08342262441943 -0.0 0.0 85.08342262441943 -0.0 0.0 84.37379091587039 -0.0 0.0 84.37379091587039 -0.0 0.0 84.37379091587039 -0.0 0.0 90.97746009288186 -0.0 0.0 90.97746009288186 -0.0 0.0 90.97746009288186 -0.0 0.0 18.243829354300512 -27.68685741440712 17.890591193034 13.914816527634306 -34.63166592994157 14.925771269364267 5.325529397709519 -53.75054957052526 21.00296897703599
0.0434 0.940302 2.272191 2.429162 -6.241333 -6.226794 -3.602532 7.209861 -8.666497 0.003505 -0.005818 4.503829 3.9372 11.721776 17.478669 -0.193596 0.459946 0.628053 -4.682626 0.497542 16.016407 0.007063 0.039171 31.987965 -4.244801 -11.507898 7.403624 0.141969 -0.477205 0.206449 -0.690513 0.023212 1.974041 0.802588 0.352295 3.262421 -0.214379 8.353545 -4.200608 -2.199574 0.366172 16.551048 0.0 0.0 0.0 -23.794018 6.894459 -9.488306 -49.341558 13.439941 9.080832 0.004707 -20.033684 -0.002729 -0.255969 -0.46328 -0.022148 -92.57014924610442 0.0 0.0 -92.57014924610442 0.0 0.0 -92.57014924610442 0.0 0.0 -85.08342262441943 0.0 0.0 -85.08342262441943 0.0 0.0 -85.08342262441943 0.0 0.0 -84.37379091587039 0.0 0.0 -84.37379091587039 0.0 0.0 -84.37379091587039 0.0 0.0 -90.97746009288186 0.0 0.0 -90.97746009288186 0.0 0.0 -90.97746009288186 0.0 0.0 -18.243829354300512 27.68685741440712 17.890591193034 -13.914816527634306 34.63166592994157 14.925771269364267 -5.325529397709519 53.75054957052526 21.00296897703599 20.977859 -1.365883 -5.485141 49.384577 -1.501232 0.03777 -0.006593 16.529099 -0.002405 0.118069 0.421472 -0.027366 92.57014924610442 -0.0 0.0 92.57014924610442 -0.0 0.0 92.57014924610442 -0.0 0.0 85.08342262441943 -0.0 0.0 85.08342262441943 -0.0 0.0 85.08342262441943 -0.0 0.0 84.37379091587039 -0.0 0.0 84.37379091587039 -0.0 0.0 84.37379091587039 -0.0 0.0 90.97746009288186 -0.0 0.0 90.97746009288186 -0.0 0.0 90.97746009288186 -0.0 0.0 18.243829354300512 -27.68685741440712 17.890591193034 13.914816527634306 -34.63166592994157 14.925771269364267 5.325529397709519 -53.75054957052526 21.00296897703599
